<mxfile host="app.diagrams.net" modified="2023-12-08T04:05:19.411Z" agent="Mozilla/5.0 (Windows NT 10.0; Win64; x64) AppleWebKit/537.36 (KHTML, like Gecko) Chrome/119.0.0.0 Safari/537.36" etag="btQWiVOurdOGPPPZXCXu" version="21.3.4" type="github">
  <diagram name="Page-1" id="HAXBD9fOpBiqzID6rbpm">
    <mxGraphModel dx="1050" dy="542" grid="1" gridSize="10" guides="1" tooltips="1" connect="1" arrows="1" fold="1" page="1" pageScale="1" pageWidth="850" pageHeight="1100" math="0" shadow="0">
      <root>
        <mxCell id="0" />
        <mxCell id="1" parent="0" />
        <mxCell id="L4s8hfjf-2aWq7cWOB9W-1" value="" style="rounded=0;whiteSpace=wrap;html=1;" vertex="1" parent="1">
          <mxGeometry x="40" y="160" width="250" height="150" as="geometry" />
        </mxCell>
        <mxCell id="L4s8hfjf-2aWq7cWOB9W-8" style="edgeStyle=orthogonalEdgeStyle;rounded=0;orthogonalLoop=1;jettySize=auto;html=1;" edge="1" parent="1" source="L4s8hfjf-2aWq7cWOB9W-2">
          <mxGeometry relative="1" as="geometry">
            <mxPoint x="150" y="390" as="targetPoint" />
          </mxGeometry>
        </mxCell>
        <mxCell id="L4s8hfjf-2aWq7cWOB9W-2" value="&lt;h1&gt;guess letter&lt;/h1&gt;" style="text;html=1;strokeColor=none;fillColor=none;spacing=5;spacingTop=-20;whiteSpace=wrap;overflow=hidden;rounded=0;" vertex="1" parent="1">
          <mxGeometry x="70" y="175" width="190" height="120" as="geometry" />
        </mxCell>
        <mxCell id="L4s8hfjf-2aWq7cWOB9W-4" value="" style="rounded=1;whiteSpace=wrap;html=1;" vertex="1" parent="1">
          <mxGeometry x="410" y="40" width="120" height="60" as="geometry" />
        </mxCell>
        <mxCell id="L4s8hfjf-2aWq7cWOB9W-7" style="edgeStyle=orthogonalEdgeStyle;rounded=0;orthogonalLoop=1;jettySize=auto;html=1;entryX=0.66;entryY=0;entryDx=0;entryDy=0;entryPerimeter=0;" edge="1" parent="1" source="L4s8hfjf-2aWq7cWOB9W-5" target="L4s8hfjf-2aWq7cWOB9W-1">
          <mxGeometry relative="1" as="geometry" />
        </mxCell>
        <mxCell id="L4s8hfjf-2aWq7cWOB9W-5" value="Init&lt;br&gt;select word from list" style="rounded=1;whiteSpace=wrap;html=1;" vertex="1" parent="1">
          <mxGeometry x="60" y="40" width="290" height="50" as="geometry" />
        </mxCell>
        <mxCell id="L4s8hfjf-2aWq7cWOB9W-12" value="" style="edgeStyle=orthogonalEdgeStyle;rounded=0;orthogonalLoop=1;jettySize=auto;html=1;" edge="1" parent="1" source="L4s8hfjf-2aWq7cWOB9W-10" target="L4s8hfjf-2aWq7cWOB9W-11">
          <mxGeometry relative="1" as="geometry" />
        </mxCell>
        <mxCell id="L4s8hfjf-2aWq7cWOB9W-14" value="" style="edgeStyle=orthogonalEdgeStyle;rounded=0;orthogonalLoop=1;jettySize=auto;html=1;" edge="1" parent="1" source="L4s8hfjf-2aWq7cWOB9W-10" target="L4s8hfjf-2aWq7cWOB9W-13">
          <mxGeometry relative="1" as="geometry" />
        </mxCell>
        <mxCell id="L4s8hfjf-2aWq7cWOB9W-10" value="" style="strokeWidth=2;html=1;shape=mxgraph.flowchart.decision;whiteSpace=wrap;" vertex="1" parent="1">
          <mxGeometry x="100" y="380" width="100" height="100" as="geometry" />
        </mxCell>
        <mxCell id="L4s8hfjf-2aWq7cWOB9W-16" style="edgeStyle=orthogonalEdgeStyle;rounded=0;orthogonalLoop=1;jettySize=auto;html=1;entryX=1;entryY=0.5;entryDx=0;entryDy=0;" edge="1" parent="1" source="L4s8hfjf-2aWq7cWOB9W-11" target="L4s8hfjf-2aWq7cWOB9W-1">
          <mxGeometry relative="1" as="geometry">
            <mxPoint x="310" y="240" as="targetPoint" />
            <Array as="points">
              <mxPoint x="331" y="321" />
              <mxPoint x="330" y="321" />
              <mxPoint x="330" y="235" />
            </Array>
          </mxGeometry>
        </mxCell>
        <mxCell id="L4s8hfjf-2aWq7cWOB9W-11" value="letter in word&lt;br&gt;display letters" style="whiteSpace=wrap;html=1;strokeWidth=2;" vertex="1" parent="1">
          <mxGeometry x="271" y="400" width="120" height="60" as="geometry" />
        </mxCell>
        <mxCell id="L4s8hfjf-2aWq7cWOB9W-17" style="edgeStyle=orthogonalEdgeStyle;rounded=0;orthogonalLoop=1;jettySize=auto;html=1;entryX=0.046;entryY=1.016;entryDx=0;entryDy=0;entryPerimeter=0;" edge="1" parent="1" source="L4s8hfjf-2aWq7cWOB9W-13" target="L4s8hfjf-2aWq7cWOB9W-1">
          <mxGeometry relative="1" as="geometry">
            <Array as="points">
              <mxPoint x="50" y="610" />
              <mxPoint x="50" y="445" />
              <mxPoint x="52" y="445" />
            </Array>
          </mxGeometry>
        </mxCell>
        <mxCell id="L4s8hfjf-2aWq7cWOB9W-13" value="wrong guess&lt;br&gt;draw next part" style="whiteSpace=wrap;html=1;strokeWidth=2;" vertex="1" parent="1">
          <mxGeometry x="90" y="580" width="120" height="60" as="geometry" />
        </mxCell>
      </root>
    </mxGraphModel>
  </diagram>
</mxfile>
